<mxfile host="65bd71144e" compressed="false">
    <diagram id="1IEk_Nb3fTFsxIXIZDjR" name="Page-1">
        <mxGraphModel dx="716" dy="1686" grid="1" gridSize="10" guides="1" tooltips="1" connect="1" arrows="1" fold="1" page="0" pageScale="1" pageWidth="850" pageHeight="1100" math="1" shadow="0">
            <root>
                <mxCell id="0"/>
                <mxCell id="1" parent="0"/>
                <mxCell id="Co3vja2heWOAhj3Xf2pz-4" value="&lt;span style=&quot;color: rgb(0 , 0 , 0) ; font-family: &amp;#34;helvetica&amp;#34; ; font-size: 11px ; font-style: normal ; font-weight: 400 ; letter-spacing: normal ; text-align: center ; text-indent: 0px ; text-transform: none ; word-spacing: 0px ; background-color: rgb(255 , 255 , 255) ; display: inline ; float: none&quot;&gt;`x_1`&lt;/span&gt;&lt;br&gt;" style="edgeStyle=orthogonalEdgeStyle;rounded=0;orthogonalLoop=1;jettySize=auto;html=1;exitX=1;exitY=0.25;exitDx=0;exitDy=0;entryX=0;entryY=0.25;entryDx=0;entryDy=0;" parent="1" source="Co3vja2heWOAhj3Xf2pz-1" target="Co3vja2heWOAhj3Xf2pz-3" edge="1">
                    <mxGeometry relative="1" as="geometry">
                        <mxPoint x="170" y="-20" as="targetPoint"/>
                    </mxGeometry>
                </mxCell>
                <mxCell id="Co3vja2heWOAhj3Xf2pz-1" value="MSD1" style="rounded=0;whiteSpace=wrap;html=1;" parent="1" vertex="1">
                    <mxGeometry x="100" y="-37.5" width="90" height="67.5" as="geometry"/>
                </mxCell>
                <mxCell id="Co3vja2heWOAhj3Xf2pz-5" value="`f_2`" style="edgeStyle=orthogonalEdgeStyle;rounded=0;orthogonalLoop=1;jettySize=auto;html=1;exitX=0;exitY=0.75;exitDx=0;exitDy=0;entryX=1;entryY=0.75;entryDx=0;entryDy=0;" parent="1" source="Co3vja2heWOAhj3Xf2pz-3" target="Co3vja2heWOAhj3Xf2pz-1" edge="1">
                    <mxGeometry relative="1" as="geometry">
                        <mxPoint x="170" y="20" as="sourcePoint"/>
                    </mxGeometry>
                </mxCell>
                <mxCell id="Co3vja2heWOAhj3Xf2pz-3" value="MSD2" style="rounded=0;whiteSpace=wrap;html=1;" parent="1" vertex="1">
                    <mxGeometry x="250" y="-40" width="90" height="70" as="geometry"/>
                </mxCell>
                <mxCell id="Co3vja2heWOAhj3Xf2pz-11" value="M1" style="rounded=0;whiteSpace=wrap;html=1;" parent="1" vertex="1">
                    <mxGeometry x="450" y="-70" width="50" height="80" as="geometry"/>
                </mxCell>
                <mxCell id="Co3vja2heWOAhj3Xf2pz-12" value="Spring + Damper" style="rounded=0;whiteSpace=wrap;html=1;fillColor=#f5f5f5;strokeColor=#666666;fontColor=#333333;" parent="1" vertex="1">
                    <mxGeometry x="390" y="-60" width="50" height="60" as="geometry"/>
                </mxCell>
                <mxCell id="Co3vja2heWOAhj3Xf2pz-14" value="Wall" style="rounded=0;whiteSpace=wrap;html=1;horizontal=0;" parent="1" vertex="1">
                    <mxGeometry x="360" y="-70" width="20" height="80" as="geometry"/>
                </mxCell>
                <mxCell id="Co3vja2heWOAhj3Xf2pz-16" value="M2" style="rounded=0;whiteSpace=wrap;html=1;" parent="1" vertex="1">
                    <mxGeometry x="580" y="-70" width="50" height="80" as="geometry"/>
                </mxCell>
                <mxCell id="Co3vja2heWOAhj3Xf2pz-17" value="Spring + Damper" style="rounded=0;whiteSpace=wrap;html=1;fillColor=#f5f5f5;strokeColor=#666666;fontColor=#333333;" parent="1" vertex="1">
                    <mxGeometry x="520" y="-60" width="50" height="60" as="geometry"/>
                </mxCell>
                <mxCell id="Co3vja2heWOAhj3Xf2pz-25" value="Spring + Damper" style="rounded=0;whiteSpace=wrap;html=1;fillColor=#f5f5f5;strokeColor=#666666;fontColor=#333333;" parent="1" vertex="1">
                    <mxGeometry x="640" y="-60" width="50" height="60" as="geometry"/>
                </mxCell>
                <mxCell id="Co3vja2heWOAhj3Xf2pz-26" value="Wall" style="rounded=0;whiteSpace=wrap;html=1;horizontal=0;" parent="1" vertex="1">
                    <mxGeometry x="700" y="-70" width="20" height="80" as="geometry"/>
                </mxCell>
                <mxCell id="Co3vja2heWOAhj3Xf2pz-34" value="`m_1 dot v_1 = - f_1  + f_2`&#10;`f_1 = c_1 (x_1 - x_0)&#10; + d_1 (v_1 - v_0)`" style="text;strokeColor=none;fillColor=none;align=left;verticalAlign=middle;whiteSpace=wrap;rounded=0;" parent="1" vertex="1">
                    <mxGeometry x="250" y="30" width="210" height="60" as="geometry"/>
                </mxCell>
                <mxCell id="Co3vja2heWOAhj3Xf2pz-35" value="`m_2 dot v_2 = - f_2  + f_3`&#10;`f_2 = c_2 (x_2 - x_1) + d_2 (v_2 - v_1)`&#10;`f_3 = c_3 (- x_2) + d_3 (- v_2)`" style="text;strokeColor=none;fillColor=none;align=left;verticalAlign=middle;whiteSpace=wrap;rounded=0;" parent="1" vertex="1">
                    <mxGeometry x="510" y="30" width="140" height="60" as="geometry"/>
                </mxCell>
            </root>
        </mxGraphModel>
    </diagram>
</mxfile>